<svg height="512pt" viewBox="-31 0 512 512" width="512pt" xmlns="http://www.w3.org/2000/svg"><path d="m0 0h360v451h-360zm0 0" fill="#73bcff"/><path d="m180 0h180v451h-180zm0 0" fill="#3aaaff"/><path d="m450 151v361h-360v-451h270zm0 0" fill="#deecf1"/><g fill="#c6e2e7"><path d="m450 151v361h-180v-451h90zm0 0"/><path d="m210 151h120v30h-120zm0 0"/><path d="m150 211h240v30h-240zm0 0"/><path d="m150 271h240v30h-240zm0 0"/><path d="m150 331h240v30h-240zm0 0"/><path d="m150 391h240v30h-240zm0 0"/></g><path d="m381.210938 61h-21.210938v90h90v-21.210938zm0 0" fill="#a8d3d8"/><path d="m270 151h60v30h-60zm0 0" fill="#a8d3d8"/><path d="m270 211h120v30h-120zm0 0" fill="#a8d3d8"/><path d="m270 271h120v30h-120zm0 0" fill="#a8d3d8"/><path d="m270 331h120v30h-120zm0 0" fill="#a8d3d8"/><path d="m270 391h120v30h-120zm0 0" fill="#a8d3d8"/></svg>