<?xml version="1.0"?>
<svg xmlns="http://www.w3.org/2000/svg" height="512px" version="1.1" viewBox="-76 0 511 511.9999" width="512px">
<g id="surface1">
<path d="M 352.691406 48.097656 L 280.03125 48.097656 L 280.03125 40.402344 L 347.367188 14.5 C 351.234375 13.015625 353.164062 8.675781 351.675781 4.808594 C 350.191406 0.945312 345.851562 -0.984375 341.984375 0.5 L 248.050781 36.628906 C 239.03125 40.101562 232.96875 48.925781 232.96875 58.59375 L 232.96875 64.128906 L 197.636719 64.128906 C 187.066406 64.128906 177.132812 68.246094 169.660156 75.71875 L 156.296875 89.082031 L 150.976562 83.757812 C 145.546875 78.328125 136.824219 77.710938 130.683594 82.324219 L 3.496094 177.859375 C 1.757812 179.164062 0.671875 181.160156 0.519531 183.328125 C 0.367188 185.496094 1.160156 187.621094 2.695312 189.160156 L 68.769531 255.234375 C 70.179688 256.644531 72.089844 257.429688 74.074219 257.429688 C 74.25 257.429688 74.425781 257.425781 74.601562 257.410156 C 76.769531 257.257812 78.765625 256.171875 80.070312 254.433594 L 175.609375 127.246094 C 180.21875 121.105469 179.601562 112.382812 174.171875 106.953125 L 166.90625 99.6875 L 180.265625 86.324219 C 184.90625 81.6875 191.074219 79.128906 197.636719 79.128906 L 232.96875 79.128906 L 232.96875 82.105469 C 228.195312 84.753906 224.953125 89.839844 224.953125 95.679688 L 224.953125 118.757812 C 196.6875 131 176.855469 159.160156 176.855469 191.871094 L 176.855469 432.351562 C 176.855469 436.496094 180.214844 439.851562 184.355469 439.851562 C 188.496094 439.851562 191.855469 436.496094 191.855469 432.351562 L 191.855469 191.871094 C 191.855469 156.226562 220.855469 127.226562 256.5 127.226562 C 292.144531 127.226562 321.144531 156.226562 321.144531 191.871094 L 321.144531 232.46875 L 312.613281 232.46875 C 308.472656 232.46875 305.113281 235.828125 305.113281 239.96875 C 305.113281 244.109375 308.472656 247.46875 312.613281 247.46875 L 321.144531 247.46875 L 321.144531 376.757812 L 264.515625 376.757812 C 264.230469 376.757812 264 376.527344 264 376.242188 L 264 247.984375 C 264 247.699219 264.230469 247.46875 264.515625 247.46875 L 280.546875 247.46875 C 284.691406 247.46875 288.046875 244.109375 288.046875 239.96875 C 288.046875 235.828125 284.691406 232.46875 280.546875 232.46875 L 264.515625 232.46875 C 255.960938 232.46875 249 239.429688 249 247.984375 L 249 376.242188 C 249 384.796875 255.960938 391.757812 264.515625 391.757812 L 321.144531 391.757812 L 321.144531 480.453125 C 321.144531 489.578125 313.722656 497 304.597656 497 L 208.40625 497 C 199.28125 497 191.855469 489.574219 191.855469 480.453125 L 191.855469 464.421875 C 191.855469 460.277344 188.5 456.921875 184.355469 456.921875 C 180.214844 456.921875 176.855469 460.277344 176.855469 464.421875 L 176.855469 480.453125 C 176.855469 497.847656 191.007812 512 208.40625 512 L 304.597656 512 C 321.992188 512 336.144531 497.847656 336.144531 480.453125 L 336.144531 191.871094 C 336.144531 159.160156 316.3125 131 288.046875 118.757812 L 288.046875 95.679688 C 288.046875 89.84375 284.804688 84.753906 280.03125 82.105469 L 280.03125 63.097656 L 352.691406 63.097656 C 356.835938 63.097656 360.191406 59.742188 360.191406 55.597656 C 360.191406 51.457031 356.835938 48.097656 352.691406 48.097656 Z M 73.265625 238.515625 L 19.414062 184.664062 L 113.585938 113.925781 L 144.003906 144.34375 Z M 163.613281 118.238281 L 153.105469 132.226562 L 125.699219 104.828125 L 139.695312 94.316406 C 139.898438 94.164062 140.1875 94.183594 140.367188 94.363281 L 163.566406 117.558594 C 163.746094 117.742188 163.765625 118.03125 163.613281 118.238281 Z M 247.964844 58.59375 C 247.964844 55.089844 250.164062 51.886719 253.4375 50.628906 L 265.03125 46.167969 L 265.03125 80.164062 L 247.964844 80.164062 Z M 256.5 112.226562 C 250.824219 112.226562 245.292969 112.835938 239.949219 113.96875 L 239.949219 95.679688 C 239.949219 95.394531 240.183594 95.164062 240.464844 95.164062 L 272.53125 95.164062 C 272.816406 95.164062 273.046875 95.394531 273.046875 95.679688 L 273.046875 113.96875 C 267.707031 112.835938 262.171875 112.226562 256.5 112.226562 Z M 256.5 112.226562 " style=" fill-rule:nonzero;fill-opacity:1;" stroke="#FFFFFF" fill="#FFFFFF"/>
</g>
</svg>
