<?xml version="1.0" encoding="iso-8859-1"?>
<!-- Generator: Adobe Illustrator 19.0.0, SVG Export Plug-In . SVG Version: 6.00 Build 0)  -->
<svg version="1.1" id="Capa_1" xmlns="http://www.w3.org/2000/svg" xmlns:xlink="http://www.w3.org/1999/xlink" x="0px" y="0px"
	 viewBox="0 0 512.001 512.001" style="enable-background:new 0 0 512.001 512.001;" xml:space="preserve">
<path style="fill:#8CE0FF;" d="M281.63,203.381c-13.801,0-25.029-11.232-25.029-25.038c0-13.8,11.228-25.028,25.029-25.028
	c13.8,0,25.028,11.228,25.028,25.028C306.658,192.149,295.43,203.381,281.63,203.381z"/>
<path style="fill:#917464;" d="M231.166,234.683l72.5,16.81l-15.153,65.405l-2.4-1.55c-8.897-5.746-16.738-12.877-23.306-21.193
	c-1.647-2.09-4.127-3.288-6.807-3.288c-2.679,0-5.16,1.198-6.806,3.286c-9.288,11.76-21.344,21.294-34.865,27.574l-3.73,1.733
	L231.166,234.683z"/>
<path style="fill:#FF4F4F;" d="M337.99,330.608c-18.486,0-36.425-5.277-51.878-15.261l-1.186-0.765l13.92-60.086l-64.677-14.996
	l-18.953,81.813l-0.888,0.413c-12.679,5.893-26.245,8.882-40.32,8.882c-10.339,0-20.51-1.638-30.229-4.871l-1.737-0.578
	l40.656-174.554l120.019-59.872l81.301,106.346v0.91l-30.447,131.36l-1.35,0.203C347.553,330.252,342.765,330.608,337.99,330.608z
	 M281.63,157.331c-11.586,0-21.013,9.426-21.013,21.012c0,11.591,9.427,21.022,21.013,21.022s21.012-9.431,21.012-21.022
	C302.642,166.757,293.216,157.331,281.63,157.331z"/>
<path d="M419.465,389.135c0.05-0.063,0.182-0.23,0.507-0.23c0.325,0,0.457,0.167,0.506,0.229
	c19.83,25.112,49.528,39.514,81.48,39.514c5.544,0,10.039-4.495,10.039-10.039c0-5.545-4.496-10.039-10.039-10.039
	c-25.77,0-49.723-11.619-65.723-31.88c-3.946-4.998-9.875-7.864-16.264-7.864s-12.318,2.866-16.265,7.864
	c-15.999,20.26-39.952,31.88-65.721,31.88c-25.77,0-49.723-11.619-65.723-31.88c-3.947-4.998-9.875-7.864-16.265-7.864
	c-6.389,0-12.317,2.866-16.264,7.864c-15.999,20.26-39.954,31.88-65.722,31.88c-5.545,0-10.039,4.495-10.039,10.039
	c0,5.545,4.495,10.039,10.039,10.039c31.951,0,61.649-14.402,81.48-39.514c0.049-0.063,0.181-0.229,0.506-0.229
	c0.326,0,0.458,0.167,0.506,0.229c19.829,25.112,49.527,39.514,81.48,39.514C369.937,428.65,399.635,414.247,419.465,389.135z"/>
<path d="M141.553,408.693c-12.919,0-12.941,20.078,0,20.078C154.472,428.771,154.493,408.693,141.553,408.693z"/>
<path d="M501.961,318.561c-25.773,0-49.73-11.617-65.723-31.863c-3.944-5.006-9.874-7.877-16.268-7.877s-12.323,2.87-16.26,7.867
	c-10.055,12.732-23.336,22.114-38.33,27.289l17.313-74.687c14.21-6.803,26.806-16.826,36.646-29.237
	c0.234-0.296,0.514-0.358,0.707-0.358c0.001,0,0.001,0,0.001,0c0.273,0,0.363,0.115,0.431,0.199
	c19.83,25.113,49.529,39.515,81.48,39.515c5.544,0,10.039-4.495,10.039-10.039s-4.496-10.039-10.039-10.039
	c-25.769,0-49.723-11.62-65.724-31.88c-3.925-4.972-9.818-7.828-16.167-7.834c-0.007,0-0.014,0-0.021,0
	c-6.436,0-12.428,2.901-16.44,7.962c-1.532,1.933-3.152,3.789-4.842,5.574l-8.57-11.211c-0.066-0.094-0.136-0.188-0.206-0.279
	L310.106,87.174c-2.923-3.825-8.149-5.037-12.457-2.886l-117.666,58.697c-0.003,0.002-0.007,0.003-0.01,0.005l-22.11,11.03
	c-4.961,2.475-6.977,8.503-4.502,13.465c2.475,4.961,8.505,6.978,13.465,4.502l2.996-1.495l-13.274,56.992
	c-18.903-4.056-36.153-14.704-48.262-30.042c-3.941-4.993-9.866-7.857-16.25-7.857h-0.001c-6.392,0-12.322,2.866-16.271,7.866
	c-15.998,20.259-39.953,31.879-65.721,31.879c-5.545,0-10.039,4.495-10.039,10.039c0,5.545,4.495,10.039,10.039,10.039
	c31.951,0,61.648-14.402,81.479-39.513c0.05-0.063,0.183-0.231,0.512-0.231l0,0c0.318,0,0.441,0.154,0.493,0.22
	c14.924,18.904,36.165,32.067,59.465,37.158l-14.686,63.057c-11.245-5.487-21.145-13.44-29.008-23.401
	c-3.945-5.006-9.874-7.876-16.268-7.876s-12.322,2.87-16.262,7.867c-16,20.256-39.957,31.874-65.731,31.874
	C4.495,318.561,0,323.055,0,328.6s4.495,10.039,10.039,10.039c31.956,0,61.656-14.399,81.492-39.514
	c0.053-0.067,0.178-0.226,0.498-0.226s0.445,0.158,0.503,0.231c12.59,15.949,29.382,27.762,48.564,34.174
	c0.03,0.01,0.059,0.021,0.089,0.031c0.02,0.007,0.04,0.014,0.06,0.021c10.538,3.505,21.561,5.282,32.764,5.282
	c15.186,0,29.829-3.214,43.52-9.546c0.025-0.011,0.05-0.022,0.075-0.033c0.036-0.016,0.072-0.032,0.107-0.048
	c14.654-6.806,27.719-17.138,37.79-29.887c0.053-0.067,0.178-0.226,0.498-0.226c0.319,0,0.444,0.158,0.503,0.233
	c7.116,9.01,15.611,16.735,25.251,22.962c0.111,0.072,0.225,0.138,0.336,0.209c0.018,0.01,0.034,0.022,0.052,0.032
	c16.666,10.664,35.965,16.305,55.848,16.305c5.172,0,10.362-0.386,15.411-1.143c0.04-0.006,0.08-0.013,0.121-0.019
	c0.052-0.008,0.104-0.016,0.156-0.025c26.021-3.94,49.377-17.54,65.796-38.327c0.053-0.067,0.178-0.225,0.497-0.225
	s0.444,0.158,0.504,0.234c19.831,25.107,49.532,39.506,81.486,39.506c5.544,0,10.039-4.495,10.039-10.039
	S507.504,318.561,501.961,318.561z M256.001,278.82C256,278.82,256,278.82,256.001,278.82c-6.395,0-12.324,2.87-16.263,7.867
	c-3.264,4.132-6.923,7.943-10.893,11.388l11.336-48.936l49.027,11.367l-8.248,35.604c-3.122-2.908-6.034-6.046-8.695-9.415
	C268.323,281.692,262.395,278.82,256.001,278.82z M298.647,308.744l12.39-53.484c1.251-5.4-2.112-10.793-7.512-12.046
	l-68.588-15.902c-2.593-0.601-5.322-0.148-7.581,1.262s-3.867,3.658-4.467,6.252l-18.039,77.869
	c-9.795,3.892-20.147,5.865-30.839,5.865c-5.966,0-11.862-0.637-17.625-1.87l36.762-157.835l106.044-52.9l71.974,94.145
	l-27.411,118.255c-1.915,0.13-3.841,0.205-5.764,0.205C324.166,318.561,310.702,315.177,298.647,308.744z"/>
<path d="M281.63,145.284c-18.229,0-33.06,14.83-33.06,33.059c0,18.235,14.83,33.069,33.06,33.069
	c18.228,0,33.059-14.835,33.059-33.069C314.689,160.114,299.859,145.284,281.63,145.284z M281.63,191.334
	c-7.158,0-12.982-5.828-12.982-12.991c0-7.157,5.824-12.981,12.982-12.981s12.981,5.823,12.981,12.981
	C294.611,185.506,288.788,191.334,281.63,191.334z"/>
<g>
</g>
<g>
</g>
<g>
</g>
<g>
</g>
<g>
</g>
<g>
</g>
<g>
</g>
<g>
</g>
<g>
</g>
<g>
</g>
<g>
</g>
<g>
</g>
<g>
</g>
<g>
</g>
<g>
</g>
</svg>
