<?xml version="1.0" encoding="iso-8859-1"?>
<!-- Generator: Adobe Illustrator 19.0.0, SVG Export Plug-In . SVG Version: 6.00 Build 0)  -->
<svg version="1.1" id="Capa_1" xmlns="http://www.w3.org/2000/svg" xmlns:xlink="http://www.w3.org/1999/xlink" x="0px" y="0px"
	 viewBox="0 0 512 512" style="enable-background:new 0 0 512 512;" xml:space="preserve">
<path style="fill:#E7E7E7;" d="M512,298.299v-84.6L442.599,199.9c-3.898-12.601-8.699-24.6-15-36.301l38.701-57.9l-60-60
	l-57.9,38.699c-11.7-6.299-23.701-11.1-36.301-15L298.299,0h-84.598L199.9,69.399c-12.599,3.9-24.6,8.701-36.301,15L105.7,45.7
	l-60,60l38.701,57.9c-6.301,11.7-11.102,23.699-15,36.301L0,213.699v84.6L69.401,312.1c3.898,12.599,8.699,24.6,15,36.299
	L45.7,406.3l60,60l57.9-38.701c11.7,6.301,23.701,11.1,36.301,15l13.8,69.401h84.598l13.801-69.401c12.599-3.9,24.6-8.699,36.301-15
	l57.9,38.701l60-60L427.6,348.398c6.301-11.699,11.102-23.699,15-36.299L512,298.299z M256,346c-49.799,0-90-40.201-90-90
	c0-49.801,40.201-90,90-90s90,40.199,90,90C346,305.799,305.799,346,256,346z"/>
<path style="fill:#D3D3D8;" d="M442.599,312.1c-3.898,12.599-8.699,24.6-15,36.299L466.3,406.3l-60,60l-57.9-38.701
	c-11.7,6.301-23.701,11.1-36.301,15L298.299,512H256V346c49.799,0,90-40.201,90-90c0-49.801-40.201-90-90-90V0h42.299L312.1,69.399
	c12.599,3.9,24.6,8.701,36.301,15L406.3,45.7l60,60l-38.701,57.9c6.301,11.7,11.102,23.699,15,36.301L512,213.699v84.6
	L442.599,312.1z"/>
<path style="fill:#BABAC0;" d="M256,151c-57.9,0-105,47.1-105,105s47.1,105,105,105s105-47.1,105-105S313.9,151,256,151z M256,301
	c-24.901,0-45-20.101-45-45c0-24.901,20.099-45,45-45s45,20.099,45,45C301,280.899,280.901,301,256,301z"/>
<path style="fill:#A1A1A7;" d="M361,256c0,57.9-47.1,105-105,105v-60c24.901,0,45-20.101,45-45c0-24.901-20.099-45-45-45v-60
	C313.9,151,361,198.1,361,256z"/>
<g>
</g>
<g>
</g>
<g>
</g>
<g>
</g>
<g>
</g>
<g>
</g>
<g>
</g>
<g>
</g>
<g>
</g>
<g>
</g>
<g>
</g>
<g>
</g>
<g>
</g>
<g>
</g>
<g>
</g>
</svg>
