<?xml version="1.0" encoding="iso-8859-1"?>
<!-- Generator: Adobe Illustrator 19.0.0, SVG Export Plug-In . SVG Version: 6.00 Build 0)  -->
<svg version="1.1" id="Capa_1" xmlns="http://www.w3.org/2000/svg" xmlns:xlink="http://www.w3.org/1999/xlink" x="0px" y="0px"
	 viewBox="0 0 512.001 512.001" style="enable-background:new 0 0 512.001 512.001;" xml:space="preserve">
<path style="fill:#FDE882;" d="M306.816,0.001L0,306.815L205.185,512l306.816-306.815V0.001H306.816z M446.103,94.2
	c-7.816,7.816-20.486,7.816-28.301,0s-7.816-20.486,0-28.301s20.486-7.816,28.301,0C453.918,73.714,453.918,86.385,446.103,94.2z"/>
<path style="fill:#FDDA40;" d="M446.103,65.898c7.816,7.816,7.816,20.486,0,28.301c-7.816,7.815-20.486,7.816-28.301,0
	l-315.21,315.209L205.184,512L512,205.186V0.001L446.103,65.898z"/>
<path style="fill:#E4F7FF;" d="M205.185,427.097L84.905,306.815L313.033,78.688l120.281,120.281L205.185,427.097z"/>
<rect x="246.652" y="121.654" transform="matrix(0.7071 0.7071 -0.7071 0.7071 284.785 -121.6007)" style="fill:#CBEDFD;" width="85.051" height="322.622"/>
<rect x="244.095" y="151.618" transform="matrix(-0.7071 -0.7071 0.7071 -0.7071 263.4965 614.9301)" style="fill:#A9E1FA;" width="30.018" height="202.551"/>
<rect x="163.14" y="250.697" transform="matrix(0.7071 -0.7071 0.7071 0.7071 -105.1305 262.5953)" style="fill:#84D4F0;" width="202.551" height="15.009"/>
<g>
</g>
<g>
</g>
<g>
</g>
<g>
</g>
<g>
</g>
<g>
</g>
<g>
</g>
<g>
</g>
<g>
</g>
<g>
</g>
<g>
</g>
<g>
</g>
<g>
</g>
<g>
</g>
<g>
</g>
</svg>
