<?xml version="1.0" encoding="iso-8859-1"?>
<!-- Generator: Adobe Illustrator 19.0.0, SVG Export Plug-In . SVG Version: 6.00 Build 0)  -->
<svg version="1.1" id="Capa_1" xmlns="http://www.w3.org/2000/svg" xmlns:xlink="http://www.w3.org/1999/xlink" x="0px" y="0px"
	 viewBox="0 0 512 512" style="enable-background:new 0 0 512 512;" xml:space="preserve">
<polygon style="fill:#917464;" points="9.27,504.009 9.27,5.304 76.896,70.178 101.188,109.78 90.068,163.387 143.409,180.195 
	173.234,212.319 178.794,261.231 233.269,302.033 254.941,363.444 322.571,387.828 375.355,441.21 447.576,449.326 505.776,504.009 
	"/>
<polygon style="fill:#BF9984;" points="187.787,77.315 210.163,38.548 262.507,34.407 289.836,84.456 268.846,120.815 
	210.137,130.641 "/>
<polygon style="fill:#755E51;" points="380.926,154.853 365.303,133.087 375.947,103.53 409.911,100.972 424.611,121.437 
	415.514,155.813 "/>
<polygon style="fill:#BF9984;" points="304.926,286.047 290.157,253.523 311.753,217.62 356.896,223.117 370.776,253.645 
	349.917,296.288 "/>
<polygon style="fill:#755E51;" points="428.512,375.839 424.423,341.489 443.68,322.849 474.467,329.066 481.951,362.3 
	463.846,379.828 "/>
<path d="M11.268,512h489.465c4.098,0,7.778-2.501,9.287-6.31c1.508-3.809,0.538-8.153-2.447-10.959l-54.041-50.774
	c-1.572-1.477-3.58-2.405-5.724-2.646l-68.755-7.727l-50.481-51.052c-1.046-1.058-2.315-1.869-3.715-2.373l-63.64-22.947
	l-20.21-57.266c-0.657-1.862-1.852-3.487-3.432-4.671l-51.23-38.371l-5.097-44.833c-0.241-2.12-1.154-4.105-2.604-5.668
	l-29.018-31.256c-1.179-1.27-2.666-2.211-4.318-2.731l-45.947-14.478l9.493-45.758c0.516-2.49,0.064-5.084-1.267-7.252L83.841,66.22
	c-0.447-0.727-0.984-1.394-1.599-1.985L18.182,2.782C15.294,0.01,11.03-0.769,7.35,0.8c-3.682,1.57-6.071,5.186-6.071,9.189v492.022
	C1.279,507.528,5.751,512,11.268,512z M21.257,33.415l46.228,44.346l21.001,34.237l-10.523,50.724
	c-1.042,5.021,1.888,10.015,6.779,11.556l52.04,16.397l24.986,26.913l5.213,45.854c0.311,2.733,1.735,5.218,3.937,6.867
	l52.257,39.14l20.778,58.877c0.998,2.827,3.211,5.055,6.031,6.072l65.971,23.787l51.373,51.955c1.605,1.623,3.719,2.648,5.987,2.903
	l68.959,7.75l33.239,31.23H21.257V33.415z"/>
<path d="M276.239,123.995l19.958-34.572c1.742-3.018,1.786-6.724,0.116-9.781l-26.171-47.928c-1.888-3.455-5.626-5.484-9.555-5.17
	l-50.005,3.956c-3.278,0.26-6.219,2.116-7.863,4.965l-21.357,37c-1.56,2.702-1.768,5.977-0.561,8.855l21.357,50.954
	c1.575,3.757,5.239,6.128,9.208,6.128c0.547,0,1.1-0.045,1.654-0.138l56.219-9.41C272.178,128.36,274.748,126.578,276.239,123.995z
	 M217.523,117.252l-16.384-39.091l16.255-28.161l38.315-3.031l20.381,37.323l-14.798,25.634L217.523,117.252z"/>
<path d="M297.24,288.449c1.291,2.842,3.835,4.918,6.878,5.61l42.484,9.669c0.741,0.169,1.484,0.25,2.22,0.25
	c3.749,0,7.267-2.12,8.97-5.601l19.748-40.376c1.312-2.68,1.356-5.807,0.12-8.524l-13.026-28.649
	c-1.441-3.17-4.429-5.36-7.886-5.782l-42.743-5.204c-3.91-0.477-7.736,1.39-9.767,4.767l-20.388,33.893
	c-1.694,2.816-1.894,6.286-0.535,9.279L297.24,288.449z M318.019,230.459l30.749,3.744l8.754,19.255l-14.202,29.035l-29.939-6.815
	l-9.705-21.376L318.019,230.459z"/>
<path d="M413.711,163.757c0.094,0.002,0.187,0.004,0.28,0.004c4.519,0,8.492-3.043,9.654-7.434l8.451-31.935
	c0.763-2.885,0.197-5.959-1.543-8.383L417.057,97.22c-2.032-2.83-5.388-4.398-8.864-4.133l-31.556,2.377
	c-3.927,0.296-7.313,2.872-8.648,6.576l-9.849,27.35c-1.114,3.094-0.634,6.538,1.284,9.21l14.434,20.108
	c1.82,2.534,4.719,4.074,7.838,4.16L413.711,163.757z M384.592,114.899l19.509-1.469l7.475,10.408l-5.221,19.729l-19.156-0.531
	l-8.483-11.819L384.592,114.899z"/>
<path d="M420.39,375.212c0.547,4.604,4.191,8.225,8.798,8.745l32.824,3.706c0.375,0.042,0.749,0.063,1.122,0.063
	c2.578,0,5.074-0.999,6.947-2.812l16.622-16.092c2.502-2.422,3.562-5.973,2.797-9.371l-6.952-30.876
	c-0.865-3.842-3.908-6.818-7.768-7.597l-28.489-5.754c-3.222-0.649-6.561,0.327-8.925,2.614l-17.791,17.221
	c-2.242,2.17-3.34,5.261-2.972,8.358L420.39,375.212z M447.487,335.847l16.993,3.432l4.298,19.09l-9.207,8.913l-20.279-2.289
	l-2.266-19.022L447.487,335.847z"/>
<path d="M414.091,315.164c12.855,0,12.876-19.978,0-19.978C401.236,295.186,401.214,315.164,414.091,315.164z"/>
<path d="M258.748,225.621c12.855,0,12.876-19.978,0-19.978C245.893,205.643,245.872,225.621,258.748,225.621z"/>
<path d="M225.031,198.429c12.855,0,12.876-19.978,0-19.978C212.176,178.451,212.154,198.429,225.031,198.429z"/>
<path d="M143.124,58.476c12.855,0,12.876-19.978,0-19.978C130.269,38.498,130.248,58.476,143.124,58.476z"/>
<path d="M339.99,51.55c-12.855,0-12.876,19.978,0,19.978C352.845,71.528,352.867,51.55,339.99,51.55z"/>
<path d="M137.63,444.074H59.715c-5.517,0-9.989,4.472-9.989,9.989s4.472,9.989,9.989,9.989h77.915c5.517,0,9.989-4.472,9.989-9.989
	S143.147,444.074,137.63,444.074z"/>
<path d="M172.591,445.073c-12.855,0-12.876,19.978,0,19.978C185.446,465.051,185.467,445.073,172.591,445.073z"/>
<g>
</g>
<g>
</g>
<g>
</g>
<g>
</g>
<g>
</g>
<g>
</g>
<g>
</g>
<g>
</g>
<g>
</g>
<g>
</g>
<g>
</g>
<g>
</g>
<g>
</g>
<g>
</g>
<g>
</g>
</svg>
