<svg viewBox="-62 0 512 512" xmlns="http://www.w3.org/2000/svg"><path d="m265.980469 0v73h-30v-43h-84.660157v43h-30v-73zm0 0" fill="#7985eb"/><path d="m21.339844 120h344.621094v392h-344.621094zm0 0" fill="#7985eb"/><path d="m235.980469 30h-42.332031v-30h72.332031v73h-30zm0 0" fill="#4b5be6"/><path d="m193.648438 120h172.3125v392h-172.3125zm0 0" fill="#4b5be6"/><g fill="#00e8f2"><path d="m0 58h387.300781v92h-387.300781zm0 0"/><path d="m101.398438 214h30v227h-30zm0 0"/><path d="m178.648438 214h30v227h-30zm0 0"/></g><path d="m255.898438 214h30v227h-30zm0 0" fill="#ffe1ba"/><path d="m193.648438 214h15v227h-15zm0 0" fill="#00cef5"/><path d="m255.898438 214h30v227h-30zm0 0" fill="#00cef5"/><path d="m193.648438 58h193.652343v92h-193.652343zm0 0" fill="#00cef5"/></svg>