<?xml version="1.0" encoding="iso-8859-1"?>
<!-- Generator: Adobe Illustrator 19.0.0, SVG Export Plug-In . SVG Version: 6.00 Build 0)  -->
<svg version="1.1" id="Layer_1" xmlns="http://www.w3.org/2000/svg" xmlns:xlink="http://www.w3.org/1999/xlink" x="0px" y="0px"
	 viewBox="0 0 512 512" style="enable-background:new 0 0 512 512;" xml:space="preserve">
<path style="fill:#DB5D45;" d="M495.651,68.66l-53.414-53.732C432.073,4.709,418.08-0.693,403.73,0.071l-96.086,5.114
	c-12.49,0.672-24.3,5.958-33.143,14.857L16.345,279.726c-19.784,19.903-19.784,52.174,0.002,72.075l144.418,145.272
	c19.782,19.901,51.863,19.905,71.647,0L490.563,237.39c8.845-8.897,14.108-20.776,14.772-33.342l5.088-96.655
	C511.18,92.96,505.813,78.882,495.651,68.66z M434.903,116.892c-11.198,11.266-29.355,11.267-40.559,0.002
	c-11.198-11.267-11.198-29.533,0.002-40.798c11.2-11.267,29.357-11.268,40.557-0.001C446.1,87.362,446.1,105.625,434.903,116.892z"
	/>
<g style="opacity:0.2;">
	<path style="fill:#FFFFFF;" d="M495.651,68.66l-53.414-53.732C432.073,4.709,418.08-0.693,403.73,0.071l-20.178,1.073
		c9.441,2.047,18.198,6.783,25.159,13.783l53.416,53.732c10.162,10.221,15.528,24.299,14.77,38.731l-5.086,96.655
		c-0.445,8.429-2.97,16.545-7.247,23.663l17.864,17.863l8.135-8.183c8.845-8.897,14.108-20.776,14.772-33.342l5.088-96.655
		C511.18,92.96,505.813,78.882,495.651,68.66z"/>
</g>
<path style="fill:#46D8BA;" d="M265.726,28.871L16.345,279.726c-19.784,19.903-19.784,52.174,0.002,72.075l144.418,145.272
	c19.782,19.901,51.863,19.905,71.647,0l250.016-251.501L265.726,28.871z"/>
<path style="fill:#FFFFFF;" d="M385.198,223.615c7.998,7.997,7.998,20.965,0,28.964L212.184,425.594c-8,7.999-20.967,7.998-28.966,0
	L86.42,328.796c-7.998-7.998-7.998-20.966,0-28.964l173.016-173.016c7.998-7.998,20.965-7.998,28.964,0L385.198,223.615z"/>
<path style="opacity:0.1;enable-background:new    ;" d="M120.455,328.796c-7.998-7.998-7.998-20.966,0-28.964l170.479-170.481
	l-2.535-2.535c-7.998-7.998-20.965-7.998-28.964,0L86.421,299.833c-7.998,7.998-7.998,20.965,0,28.964l96.798,96.798
	c7.998,7.998,20.965,7.999,28.966,0l2.535-2.535L120.455,328.796z"/>
<g>
	<path style="fill:#B3B3B3;" d="M274.109,178.074c-4.21-4.208-11.033-4.208-15.243,0L137.402,299.537
		c-4.21,4.209-4.21,11.035,0,15.245c2.104,2.104,4.863,3.157,7.62,3.157c2.76,0,5.518-1.052,7.623-3.157l121.463-121.463
		C278.318,189.108,278.318,182.283,274.109,178.074z"/>
	<path style="fill:#B3B3B3;" d="M304.025,207.99c-4.21-4.209-11.033-4.209-15.245,0L167.317,329.453
		c-4.208,4.209-4.208,11.035,0,15.244c2.107,2.104,4.863,3.158,7.623,3.158c2.76,0,5.516-1.053,7.623-3.158l121.463-121.463
		C308.235,219.024,308.235,212.199,304.025,207.99z"/>
	<path style="fill:#B3B3B3;" d="M333.94,237.906c-4.21-4.208-11.034-4.208-15.245,0L197.232,359.369
		c-4.21,4.209-4.21,11.034,0,15.244c2.107,2.105,4.863,3.157,7.623,3.157c2.76,0,5.516-1.052,7.623-3.157L333.94,253.15
		C338.149,248.94,338.149,242.115,333.94,237.906z"/>
</g>
<g style="opacity:0.1;">
	<path id="SVGCleanerId_0" d="M193.619,497.073L49.202,351.801C29.415,331.9,29.415,299.629,49.2,279.726L323.106,4.364
		l-15.461,0.822c-12.49,0.672-24.3,5.958-33.143,14.857L16.345,279.726c-19.784,19.903-19.784,52.174,0.002,72.075l144.418,145.272
		c14.131,14.215,34.535,18.271,52.251,12.178C205.93,506.813,199.272,502.759,193.619,497.073z"/>
	<g>
		<path id="SVGCleanerId_0_1_" d="M193.619,497.073L49.202,351.801C29.415,331.9,29.415,299.629,49.2,279.726L323.106,4.364
			l-15.461,0.822c-12.49,0.672-24.3,5.958-33.143,14.857L16.345,279.726c-19.784,19.903-19.784,52.174,0.002,72.075l144.418,145.272
			c14.131,14.215,34.535,18.271,52.251,12.178C205.93,506.813,199.272,502.759,193.619,497.073z"/>
	</g>
</g>
<g>
</g>
<g>
</g>
<g>
</g>
<g>
</g>
<g>
</g>
<g>
</g>
<g>
</g>
<g>
</g>
<g>
</g>
<g>
</g>
<g>
</g>
<g>
</g>
<g>
</g>
<g>
</g>
<g>
</g>
</svg>
