<?xml version="1.0" encoding="iso-8859-1"?>
<!-- Generator: Adobe Illustrator 19.0.0, SVG Export Plug-In . SVG Version: 6.00 Build 0)  -->
<svg version="1.1" id="Capa_1" xmlns="http://www.w3.org/2000/svg" xmlns:xlink="http://www.w3.org/1999/xlink" x="0px" y="0px"
	 viewBox="0 0 512 512" style="enable-background:new 0 0 512 512;" xml:space="preserve">
<rect x="413.79" y="372.603" style="fill:#5A6B96;" width="38.337" height="55.029"/>
<path style="fill:#EFEFEF;" d="M448.054,427.637v-50.953h-30.185v50.953h-25.864c-4.973,0-9.993-0.114-14.92-0.338l-1.945-0.089
	v-82.657l0.789-0.622l57.04-44.223l57.814,45.351v82.578H448.054z"/>
<path style="fill:#45CCFF;" d="M215.591,427.637l-0.612-0.796c-31.622-41.109-31.806-100.717-29.101-132.588
	c1.644-19.327,5.448-47.818,19.445-72.029c20.511-35.448,39.132-47.366,73.892-64.429l1.84-0.903l2.067,4.272l-1.807,0.897
	c-36.215,17.982-56.16,53.909-56.16,101.161c0,101.472,51.18,155.305,152.118,160.005l1.943,0.091v4.32L215.591,427.637
	L215.591,427.637z"/>
<path style="fill:#8CE0FF;" d="M130.494,427.637l-0.319-1.651c-6.668-34.433-13.161-70.841-12.949-104.192
	c0.255-38.157,9.581-71.748,26.975-97.144c16.738-24.436,43.031-44.466,76.037-57.925c29.193-11.909,74.123-20.552,106.833-20.552
	l0.119,4.073c-16.382,0.963-32.246,5.049-45.876,11.816l-1.845,0.915l-0.299-0.617c-32.828,16.217-50.733,28.052-70.321,61.905
	c-13.588,23.504-17.302,51.397-18.912,70.334c-2.655,31.283-2.512,89.741,28.272,129.759l2.523,3.28h-90.239V427.637z"/>
<path style="fill:#CCF2FF;" d="M39.041,427.637l-0.285-1.701c-2.264-13.509-12.626-84.647,5.874-158.74
	c9.387-37.597,24.734-70.21,45.615-96.936c25.137-32.173,58.534-56.055,99.266-70.984c27.024-9.901,53.152-14.922,77.661-14.922
	c32.251,0,62.052,8.579,88.574,25.501c8.409,5.362,12.044,14.999,9.258,24.551c-2.811,9.638-11.043,15.867-20.973,15.868
	c-0.465,0-0.933-0.013-1.41-0.041c-2.533-0.144-5.103-0.217-7.639-0.217c-2.591,0-5.212,0.076-7.789,0.227l-0.119,0.003
	c-32.247,0-76.529,8.516-105.295,20.251c-32.266,13.157-57.928,32.679-74.214,56.454c-16.932,24.722-26.013,57.527-26.261,94.868
	c-0.21,32.978,6.245,69.159,12.875,103.391l0.47,2.425H39.041V427.637z"/>
<path d="M392.005,435.79h96.74c5.628,0,10.191-4.562,10.191-10.191v-59.536c0.939,0.275,1.904,0.42,2.867,0.42
	c3.024,0,6.017-1.34,8.027-3.904c3.472-4.429,2.696-10.835-1.733-14.308l-68.846-53.998c-3.676-2.884-8.841-2.898-12.533-0.036
	l-55.783,43.249c-0.106,0.082-0.209,0.165-0.311,0.251l-13.253,10.276c-4.448,3.449-5.258,9.85-1.809,14.297
	c2.758,3.557,7.402,4.778,11.427,3.366v48.7c-89.917-7.604-133.68-57.141-133.68-151.158c0-56.385,28.078-82.163,51.633-93.859
	c12.656-6.284,27.431-10.081,42.726-10.979c4.794-0.28,9.669-0.283,14.486-0.009c13.923,0.8,26.134-7.576,30.415-20.83
	c4.266-13.208-0.734-27.098-12.439-34.561c-22.051-14.069-46.41-22.695-72.398-25.636c-7.147-0.809-14.429-1.164-21.824-1.112
	c-0.146-0.006-0.289-0.022-0.436-0.022H82.886c-5.628,0-10.191,4.562-10.191,10.191c0,5.628,4.562,10.191,10.191,10.191h91.338
	c-18.179,7.749-34.831,17.338-49.859,28.721H10.191C4.562,125.313,0,129.875,0,135.504c0,5.628,4.562,10.191,10.191,10.191h90.882
	c-6.101,6.15-11.869,12.653-17.253,19.543c-21.588,27.63-37.434,61.269-47.101,99.98c-18.891,75.66-8.316,148.274-6.003,162.063
	c0.823,4.909,5.073,8.505,10.05,8.505h91.354c0.015,0,0.03,0.002,0.045,0.002c0.013,0,0.027-0.002,0.042-0.002h84.386
	c0.003,0,0.006,0,0.009,0c0.004,0,0.008,0,0.012,0h175.392V435.79z M439.901,415.408h-13.88v-30.572h13.88V415.408z
	 M432.925,315.216l45.629,35.788v64.405h-18.272v-40.762c0-5.628-4.562-10.191-10.191-10.191h-34.261
	c-5.628,0-10.191,4.562-10.191,10.191v40.762h-13.635c-1.542,0-3.09-0.03-4.637-0.053v-64.82L432.925,315.216z M197.864,415.408
	h-57.266c-5.956-31.342-11.332-63.912-11.143-93.534c0.237-35.708,8.825-66.939,24.835-90.314
	c15.382-22.455,39.783-40.959,70.568-53.513c3.175-1.295,6.554-2.548,10.08-3.754c-13.23,10.282-24.867,23.45-36.671,43.85
	c-14.814,25.623-18.801,55.314-20.511,75.42C175.288,322.626,175.206,373.999,197.864,415.408z M193.716,110.76
	c24.107-8.832,47.056-13.551,68.75-14.163h3.002c0.361,0,0.717-0.02,1.069-0.057c30.094-0.135,57.728,7.74,82.631,23.628
	c5.841,3.726,4.541,9.449,4.003,11.114c-0.543,1.683-2.861,7.149-9.858,6.745c-5.48-0.311-11.023-0.31-16.485-0.004
	c-34.151,0.041-79.206,8.727-109.668,21.154c-34.488,14.064-62.043,35.112-79.686,60.868
	c-18.316,26.742-28.135,61.908-28.401,101.699c-0.192,30.164,4.928,62.491,10.783,93.666H49.547
	C43.082,367.179,27.829,171.56,193.716,110.76z M221.774,415.408c-26.201-37.7-26.179-91.052-23.713-120.12
	c1.545-18.158,5.075-44.853,17.846-66.941c0.405-0.699,0.807-1.376,1.21-2.054c-2.77,11.45-4.191,23.798-4.191,36.929
	c0,58.95,16.751,103.584,49.79,132.663c8.61,7.578,18.324,14.09,29.112,19.524h-70.053V415.408z"/>
<path d="M51.975,76.215c-13.114,0-13.136,20.381,0,20.381C65.09,96.596,65.111,76.215,51.975,76.215z"/>
<g>
</g>
<g>
</g>
<g>
</g>
<g>
</g>
<g>
</g>
<g>
</g>
<g>
</g>
<g>
</g>
<g>
</g>
<g>
</g>
<g>
</g>
<g>
</g>
<g>
</g>
<g>
</g>
<g>
</g>
</svg>
