<?xml version="1.0" encoding="iso-8859-1"?>
<!-- Generator: Adobe Illustrator 19.0.0, SVG Export Plug-In . SVG Version: 6.00 Build 0)  -->
<svg version="1.1" id="Capa_1" xmlns="http://www.w3.org/2000/svg" xmlns:xlink="http://www.w3.org/1999/xlink" x="0px" y="0px"
	 viewBox="0 0 511.999 511.999" style="enable-background:new 0 0 511.999 511.999;" xml:space="preserve">
<path style="fill:#EFEFEF;" d="M324.694,503.934c-0.223-0.035-22.563-3.647-49.41-14.905c-24.2-10.148-57.341-28.864-77.794-60.403
	c-20.47-31.563-24.794-70.02-12.853-114.297c25.44-94.366,0.57-121.527-25.759-150.283c-17.235-18.824-35.058-38.289-37.871-77.471
	l-0.154-2.151h300.99l0.557,1.099c0.592,1.168,14.454,29.059,10.634,70.722c-2.24,24.428-10.166,48.479-23.555,71.485
	c-16.687,28.674-41.958,55.789-75.109,80.592c-44.653,33.405-66.694,68.079-65.508,103.058
	c1.775,52.391,54.974,87.422,57.238,88.887L324.694,503.934z"/>
<path d="M142.662,48.234c0,5.545,4.496,10.039,10.039,10.039h312.308c5.544,0,10.039-4.495,10.039-10.039
	s-4.496-10.039-10.039-10.039H152.701C147.158,38.195,142.662,42.69,142.662,48.234z"/>
<path d="M381.001,20.078c5.544,0,10.039-4.495,10.039-10.039S386.545,0,381.001,0H100.003C94.46,0,89.964,4.495,89.964,10.039
	s4.496,10.039,10.039,10.039H381.001z"/>
<path d="M452.142,501.957c0-5.545-4.496-10.039-10.039-10.039H328.155c-10.086-7.257-49.833-38.49-51.266-80.813
	c-1.09-32.198,19.868-64.616,62.292-96.355c34.02-25.453,60.007-53.372,77.24-82.982c6.567-11.284,11.859-22.821,15.887-34.535
	c0.118-0.297,0.223-0.6,0.313-0.91c4.37-12.934,7.194-26.08,8.412-39.347c4.03-43.942-10.833-73.838-11.469-75.089
	c-1.711-3.372-5.171-5.497-8.953-5.497H123.01c-2.787,0-5.449,1.159-7.349,3.199c-1.899,2.04-2.864,4.779-2.664,7.559
	c2.178,30.331,13.034,49.936,25.423,65.617c0.113,0.148,0.227,0.294,0.347,0.435c4.649,5.844,9.501,11.151,14.186,16.268
	c24.798,27.083,48.219,52.664,23.927,142.769c-12.559,46.573-7.893,87.202,13.869,120.759
	c18.375,28.335,45.877,46.938,71.099,58.922H122.295c-5.544,0-10.039,4.495-10.039,10.039c0,5.545,4.496,10.039,10.039,10.039
	h202.654c0.026,0,0.052,0.004,0.078,0.004s0.051-0.004,0.077-0.004h116.997C447.646,511.996,452.142,507.501,452.142,501.957z
	 M207.573,422.032c-8.141-12.565-13.433-26.411-15.876-41.452h33.627c5.544,0,10.039-4.495,10.039-10.039
	s-4.496-10.039-10.039-10.039h-35.191c0.014-13.538,2.054-27.899,6.136-43.038c5.874-21.789,9.377-40.929,10.554-57.988h89.007
	c5.544,0,10.039-4.495,10.039-10.039c0-5.545-4.496-10.039-10.039-10.039h-88.736c-0.492-10.267-2.005-19.716-4.54-28.501
	c-7.028-24.359-20.701-39.591-34.055-54.182h101.568c5.544,0,10.039-4.495,10.039-10.039c0-5.545-4.496-10.039-10.039-10.039
	h-118.71c-7.88-10.722-14.231-23.089-17.071-40.167H413.95c3.535,9.514,9.649,30.74,7.088,58.674
	c-0.873,9.52-2.702,18.977-5.45,28.338H260.577c-5.544,0-10.039,4.495-10.039,10.039c0,5.545,4.496,10.039,10.039,10.039H408.2
	c-15.016,33.923-42.395,66.196-81.047,95.115c-2.389,1.787-4.7,3.581-6.968,5.379h-73.683c-5.544,0-10.039,4.495-10.039,10.039
	c0,5.545,4.496,10.039,10.039,10.039h51.07c-28.074,28.257-41.768,57.634-40.751,87.654c0.954,28.157,14.9,51.647,29.408,68.631
	C260.037,470.312,227.235,452.379,207.573,422.032z"/>
<path d="M428.705,318.441c15.684,0,31.369,0,47.053,0c12.919,0,12.942-20.078,0-20.078c-15.684,0-31.369,0-47.053,0
	C415.786,298.362,415.765,318.441,428.705,318.441z"/>
<path d="M366.681,356.939c16.041,0,32.082,0,48.123,0c12.919,0,12.941-20.078,0-20.078c-16.041,0-32.081,0-48.123,0
	C353.762,336.861,353.741,356.939,366.681,356.939z"/>
<path d="M74.739,255.347c16.397,0,32.795,0,49.192,0c12.919,0,12.941-20.078,0-20.078c-16.397,0-32.794,0-49.192,0
	C61.819,235.269,61.798,255.347,74.739,255.347z"/>
<path d="M306.261,155.894c12.919,0,12.941-20.078,0-20.078C293.342,135.816,293.321,155.894,306.261,155.894z"/>
<path d="M36.24,213.642c12.833,0,25.665,0,38.498,0c12.919,0,12.941-20.078,0-20.078c-12.832,0-25.665,0-38.498,0
	C23.321,193.563,23.3,213.642,36.24,213.642z"/>
<g>
</g>
<g>
</g>
<g>
</g>
<g>
</g>
<g>
</g>
<g>
</g>
<g>
</g>
<g>
</g>
<g>
</g>
<g>
</g>
<g>
</g>
<g>
</g>
<g>
</g>
<g>
</g>
<g>
</g>
</svg>
