<?xml version="1.0" encoding="iso-8859-1"?>
<!-- Generator: Adobe Illustrator 19.0.0, SVG Export Plug-In . SVG Version: 6.00 Build 0)  -->
<svg version="1.1" id="Capa_1" xmlns="http://www.w3.org/2000/svg" xmlns:xlink="http://www.w3.org/1999/xlink" x="0px" y="0px"
	 viewBox="0 0 512 512" style="enable-background:new 0 0 512 512;" xml:space="preserve">
<path style="fill:#FBC640;" d="M227.627,251.998v-75.961c-0.074-0.025-0.148-0.051-0.222-0.077
	c-8.679,7.582-19.75,11.743-31.311,11.743c-10.285,0-20.035-3.216-28.266-9.31c-5.439,1.603-11.1,2.416-16.845,2.416
	c-32.905,0-59.676-26.766-59.676-59.665c0-32.906,26.771-59.676,59.676-59.676c8.112,0,15.958,1.596,23.356,4.75
	C186.349,31.332,218.885,8.052,256,8.052s69.65,23.28,81.662,58.165c7.399-3.152,15.244-4.75,23.357-4.75
	c32.905,0,59.676,26.77,59.676,59.676c0,32.9-26.771,59.665-59.676,59.665c-5.745,0-11.407-0.812-16.845-2.416
	c-8.23,6.094-17.98,9.31-28.267,9.31c-11.562,0-22.631-4.161-31.31-11.743c-0.073,0.026-0.148,0.051-0.222,0.077v75.961H227.627z"/>
<path style="fill:#917464;" d="M67.78,503.946l100.424-157.81h60.026v2.013c0,11.338,9.225,20.563,20.563,20.563
	c11.333,0,20.553-9.225,20.553-20.563h4.026v73.465c0,10.606,8.629,19.234,19.234,19.234c5.141,0,9.972-2,13.604-5.63
	c3.631-3.63,5.631-8.463,5.631-13.604v-75.478h31.953l100.425,157.81H67.78z"/>
<path style="fill:#FF7D46;" d="M292.607,444.874c-12.826,0-23.26-10.434-23.26-23.26v-59.993
	c-4.396,6.69-11.968,11.117-20.553,11.117c-12.88,0-23.48-9.955-24.507-22.576h-58.643l33.884-53.254h112.945l33.885,53.254h-30.49
	v71.452c0,6.217-2.419,12.059-6.811,16.45C304.667,442.456,298.824,444.874,292.607,444.874z"/>
<path d="M71.448,511.998h75.767c0.017,0,0.034,0.002,0.05,0.002s0.033-0.002,0.049-0.002h47.141c0.008,0,0.016,0.001,0.024,0.001
	c0.012,0,0.023-0.001,0.035-0.001h246.038c3.673,0,7.056-2.001,8.823-5.222c1.768-3.22,1.642-7.148-0.331-10.247L319.859,293.518
	c-1.847-2.904-5.051-4.662-8.492-4.662H200.632c-3.441,0-6.645,1.758-8.492,4.662L62.956,496.529
	c-1.972,3.099-2.1,7.026-0.332,10.247C64.392,509.997,67.774,511.998,71.448,511.998z M206.158,308.986h99.684l18.516,29.098
	h-10.504c-5.558,0-10.065,4.506-10.065,10.065v73.465c0,2.99-1.161,5.799-3.274,7.91c-2.109,2.11-4.918,3.271-7.908,3.271
	c-6.166,0-11.182-5.016-11.182-11.182v-73.464c0-5.559-4.507-10.065-10.065-10.065c-5.558,0-10.065,4.506-10.065,10.065
	c0,6.899-5.608,12.511-12.501,12.511c-6.899,0-12.511-5.612-12.511-12.511c0-5.559-4.506-10.065-10.065-10.065h-38.576
	L206.158,308.986z M174.832,358.214h42.915c4.253,13.087,16.559,22.576,31.046,22.576c4.427,0,8.648-0.891,12.501-2.495v43.319
	c0,17.266,14.047,31.312,31.312,31.312c8.368,0,16.234-3.256,22.143-9.168c5.913-5.912,9.169-13.776,9.169-22.144v-63.4h13.249
	l85.049,133.654H207.35l6.583-26.445c1.343-5.394-1.942-10.855-7.336-12.199c-5.391-1.342-10.855,1.943-12.199,7.336l-7.793,31.307
	h-25.522l18.041-55.958c1.706-5.29-1.201-10.962-6.491-12.668c-5.288-1.702-10.962,1.2-12.668,6.491l-20.031,62.133H89.783
	L174.832,358.214z"/>
<path d="M150.982,188.86c5.193,0,10.328-0.586,15.326-1.745c8.894,5.668,19.092,8.64,29.785,8.64c8.204,0,16.198-1.793,23.482-5.183
	v59.414c0,5.559,4.506,10.065,10.065,10.065s10.065-4.506,10.065-10.065v-75.397c0-4.369-2.819-8.239-6.978-9.58
	c-0.787-0.254-1.566-0.525-2.336-0.805c-3.533-1.284-7.484-0.493-10.25,2.05c-6.573,6.043-15.114,9.373-24.047,9.373
	c-7.935,0-15.442-2.565-21.708-7.416c-2.606-2.017-6.036-2.631-9.179-1.644c-4.571,1.436-9.355,2.164-14.224,2.164
	c-26.246,0-47.598-21.348-47.598-47.587c0-26.246,21.352-47.598,47.598-47.598c7.081,0,13.903,1.523,20.279,4.526
	c2.627,1.237,5.663,1.28,8.322,0.116c2.661-1.164,4.689-3.42,5.564-6.189C194.949,40.974,223.423,20.13,256,20.13
	s61.05,20.844,70.853,51.868c0.875,2.769,2.904,5.025,5.564,6.189c2.66,1.164,5.695,1.12,8.322-0.116
	c6.377-3.003,13.199-4.526,20.28-4.526c26.246,0,47.598,21.352,47.598,47.598c0,26.24-21.352,47.587-47.598,47.587
	c-4.868,0-9.654-0.729-14.224-2.164c-3.143-0.987-6.572-0.373-9.178,1.644c-6.267,4.851-13.775,7.416-21.709,7.416
	c-8.934,0-17.473-3.329-24.046-9.372c-2.767-2.544-6.718-3.335-10.251-2.051c-0.771,0.28-1.55,0.553-2.338,0.806
	c-4.158,1.342-6.976,5.211-6.976,9.58v75.397c0,5.559,4.507,10.065,10.065,10.065c5.558,0,10.065-4.506,10.065-10.065v-59.413
	c7.284,3.391,15.277,5.182,23.481,5.182c10.693,0,20.891-2.972,29.786-8.64c4.997,1.159,10.132,1.745,15.326,1.745
	c37.345,0,67.728-30.378,67.728-67.718c0-37.345-30.383-67.728-67.728-67.728c-6.405,0-12.666,0.878-18.711,2.618
	C327.31,22.124,293.833,0,256,0s-71.311,22.124-86.308,56.032c-6.045-1.74-12.305-2.618-18.71-2.618
	c-37.345,0-67.728,30.382-67.728,67.728C83.254,158.482,113.637,188.86,150.982,188.86z"/>
<path d="M210.708,443.868c12.953,0,12.974-20.13,0-20.13C197.755,423.738,197.733,443.868,210.708,443.868z"/>
<g>
</g>
<g>
</g>
<g>
</g>
<g>
</g>
<g>
</g>
<g>
</g>
<g>
</g>
<g>
</g>
<g>
</g>
<g>
</g>
<g>
</g>
<g>
</g>
<g>
</g>
<g>
</g>
<g>
</g>
</svg>
